<?xml version="1.0" encoding="utf-8"?>
<svg viewBox="0 0 500 500" xmlns="http://www.w3.org/2000/svg">
  <g transform="matrix(0.1, 0, 0, -0.1, 101.895813, 341.222778)" fill="#000000" stroke="none">
    <path d="M1312 2719 c-505 -59 -915 -416 -1049 -916 -24 -90 -27 -115 -27 -293 -1 -182 1 -202 27 -299 81 -304 248 -542 501 -715 366 -250 853 -278 1251 -73 221 115 421 318 533 542 128 258 159 546 91 838 -18 75 -28 98 -54 124 -38 38 -80 43 -125 16 -56 -33 -62 -67 -30 -193 33 -129 34 -364 2 -482 -51 -188 -145 -349 -279 -479 -189 -184 -403 -275 -668 -286 -105 -4 -148 -1 -225 15 -198 41 -365 128 -508 266 -139 134 -232 292 -278 476 -113 442 85 898 488 1128 108 61 112 62 103 22 -17 -79 -2 -187 36 -262 62 -121 207 -208 347 -208 185 0 352 -122 412 -301 18 -52 21 -81 18 -154 -5 -121 -42 -202 -132 -290 -71 -69 -86 -92 -86 -127 0 -35 34 -83 69 -98 51 -21 96 -1 171 74 228 227 262 560 85 827 -108 161 -319 279 -500 279 -126 0 -215 76 -215 184 0 78 66 160 137 171 85 13 114 26 133 58 24 39 25 68 5 107 -30 58 -76 67 -233 49z m178 -32 c14 -7 28 -26 34 -45 15 -52 -14 -82 -98 -102 -76 -19 -110 -40 -148 -96 -53 -77 -47 -166 16 -241 47 -54 86 -71 182 -77 272 -19 479 -181 566 -441 34 -104 32 -271 -4 -373 -35 -98 -81 -173 -146 -239 -96 -96 -176 -104 -198 -19 -8 32 9 59 81 130 124 123 167 301 112 463 -41 120 -112 207 -217 262 -70 37 -111 48 -231 60 -64 6 -112 17 -140 32 -143 72 -209 180 -209 345 0 84 -8 104 -45 104 -59 0 -233 -117 -340 -229 -141 -147 -224 -300 -272 -504 -21 -88 -23 -325 -4 -407 53 -224 139 -380 295 -536 145 -145 263 -211 501 -280 87 -25 354 -25 445 0 36 10 70 19 75 20 57 15 81 24 150 59 215 107 386 276 488 483 76 152 102 272 101 459 0 122 -5 165 -22 228 -28 98 -28 138 -2 162 30 27 89 23 111 -6 62 -83 93 -428 55 -610 -33 -153 -71 -254 -145 -382 -103 -180 -250 -327 -436 -434 -177 -103 -371 -154 -585 -155 -243 0 -416 46 -635 171 -89 52 -212 157 -288 249 -186 222 -272 459 -276 758 -3 201 27 346 110 519 86 182 195 314 379 458 114 89 338 183 490 206 41 6 86 13 100 15 57 8 127 5 150 -7z" style="fill: rgb(0, 255, 76);"/>
    <path d="M1392 2425 c-59 -43 -65 -124 -12 -168 23 -19 45 -26 107 -31 191 -17 343 -85 468 -211 91 -91 143 -174 182 -290 25 -72 27 -94 27 -220 0 -127 -2 -147 -27 -219 -107 -305 -371 -496 -687 -496 -301 0 -568 183 -671 459 -26 70 -52 99 -97 107 -70 13 -142 -58 -126 -123 30 -121 124 -275 233 -384 182 -182 403 -273 661 -272 202 1 355 46 516 152 197 129 332 320 395 557 31 114 31 315 1 438 -81 328 -329 584 -659 682 -115 34 -277 44 -311 19z m331 -56 c352 -117 584 -399 629 -765 33 -269 -70 -554 -269 -745 -180 -173 -384 -254 -633 -253 -159 1 -268 26 -405 94 -180 89 -316 225 -405 405 -60 120 -66 171 -24 204 50 39 98 19 128 -54 81 -196 208 -335 382 -420 281 -137 617 -84 842 134 241 234 298 567 150 871 -46 93 -62 116 -145 198 -52 50 -100 92 -108 92 -8 0 -15 4 -15 8 0 7 -76 45 -145 72 -52 21 -138 39 -185 40 -71 0 -118 17 -134 48 -18 34 -10 78 18 98 34 26 204 11 319 -27z" style="fill: rgb(0, 255, 76);"/>
    <path d="M2168 2371 c-28 -25 -33 -36 -33 -76 0 -40 5 -51 33 -76 24 -22 42 -29 72 -29 30 0 48 7 72 29 28 25 33 36 33 76 0 40 -5 51 -33 76 -24 22 -42 29 -72 29 -30 0 -48 -7 -72 -29z m122 -19 c31 -25 32 -88 1 -113 -62 -50 -147 6 -120 79 19 53 76 69 119 34z" style="fill: rgb(0, 255, 76);"/>
    <path d="M1389 1860 c-255 -42 -380 -342 -233 -557 154 -225 506 -194 622 55 23 49 27 70 27 147 0 76 -4 99 -26 146 -72 153 -226 235 -390 209z m206 -60 c68 -33 110 -73 151 -145 24 -44 28 -61 28 -140 1 -97 -9 -132 -56 -202 -72 -107 -243 -163 -364 -119 -100 35 -156 83 -201 169 -23 44 -27 65 -28 137 0 77 3 92 33 152 47 96 118 152 222 174 75 16 144 8 215 -26z" style="fill: rgb(0, 255, 76);"/>
  </g>
</svg>